# xmcd
#
# Track frame offsets:
#	150
#	13850
#	31310
#	48802
#	64327
#	83245
#	100040
#	114260
#	135105
#	150362
#	166577
#	180717
#	200190
#	215652
#	230670
#	246892
#	263540
#	277945
#	291615
#	309942
#
# Disc length: 4391
#
# Revision: 3
# Processed by: cddbd v1.5.1PL0 Copyright (c) Steve Scherf et al.
# Submitted via: FreeRIP 2.70 
# Normalized: r2:TDELIM( - )
#
DISCID=0c112514
DTITLE=Boot Scootin' 9
DYEAR=1900
DGENRE=Country
TTITLE0=Alan Jackson - Tropical Depression
TTITLE1=George Strait - One Night At A Time
TTITLE2=Joe Diffie - Honky Tonk Attitude [Extended Club Mix]
TTITLE3=Patty Loveless - Jealous Bone
TTITLE4=Tim McGraw - Don't Take The Girl
TTITLE5=Jimmy Buffett - Volcano
TTITLE6=Tracy Lawrence - If The World Had A Front Porch
TTITLE7=Garth Brooks - Ain't Going Down (Til The Sun Comes Up)
TTITLE8=Shenandoah - Next To You, Next To Me
TTITLE9=Mindy McCready - Ten Thousand Angels
TTITLE10=Willie Nelson - Funny How Time Slips Away
TTITLE11=Willie Nelson - South Side Of Dixie - Vince Gill
TTITLE12=Eddy Raven - Zydeco Lady
TTITLE13=Carlene Carter - Every Little Thing
TTITLE14=Alabama - Feels So Right
TTITLE15=Ronnie Milsap - True Believer [Edited Version]
TTITLE16=Mary-Chapin Carpenter - Passionate Kisses
TTITLE17=Mary-Chapin Carpenter - Behind Closed Doors - Charlie Rich
TTITLE18=Mary-Chapin Carpenter - Swamp Thing [Radio Mix] - Grid
TTITLE19=Twister Alley - Dance [Club Mix]
EXTD=
EXTT0=
EXTT1=
EXTT2=
EXTT3=
EXTT4=
EXTT5=
EXTT6=
EXTT7=
EXTT8=
EXTT9=
EXTT10=
EXTT11=
EXTT12=
EXTT13=
EXTT14=
EXTT15=
EXTT16=
EXTT17=
EXTT18=
EXTT19=
PLAYORDER=
